<?xml version="1.0" encoding="utf-8"?>
<svg width="16" height="16" viewBox="0 0 16 16" fill="none" xmlns="http://www.w3.org/2000/svg">
<g clip-path="url(#clip0_39_651)">
<path fill-rule="evenodd" clip-rule="evenodd" d="M16 15.3638H12.4636V10.2504C12.4636 8.91218 11.9109 7.99836 10.6942 7.99836C9.764 7.99836 9.24655 8.61509 9.00582 9.20927C8.91527 9.42236 8.92945 9.71945 8.92945 10.0165V15.3638H5.42618C5.42618 15.3638 5.47127 6.306 5.42618 5.48272H8.92945V7.03363C9.13673 6.35545 10.256 5.38781 12.0422 5.38781C14.2585 5.38781 16 6.8089 16 9.86963V15.3638ZM1.88364 4.24672H1.86073C0.732 4.24672 0 3.49145 0 2.534C0 1.558 0.753455 0.818359 1.90509 0.818359C3.05564 0.818359 3.76327 1.55618 3.78545 2.53109C3.78545 3.48854 3.05564 4.24672 1.88364 4.24672ZM0.403636 5.48272H3.52218V15.3638H0.403636V5.48272Z" fill="#007EBB"/>
</g>
<defs>
<clipPath id="clip0_39_651">
<rect width="16" height="14.5455" fill="white" transform="translate(0 0.818359)"/>
</clipPath>
</defs>
</svg>
