<?xml version="1.0" encoding="utf-8"?>
<svg width="16" height="16" viewBox="0 0 16 16" fill="none" xmlns="http://www.w3.org/2000/svg">
<g clip-path="url(#clip0_39_635)">
<path d="M16.6667 3.53887C16.0648 3.80137 15.4283 3.97583 14.7767 4.05687C15.4634 3.6495 15.9768 3.00443 16.2197 2.24387C15.5767 2.6252 14.8732 2.89374 14.1397 3.03787C13.6899 2.55765 13.1061 2.22379 12.4642 2.07966C11.8222 1.93554 11.1517 1.98781 10.5399 2.22969C9.92799 2.47157 9.403 2.89188 9.03311 3.436C8.66322 3.98013 8.46551 4.62292 8.46569 5.28087C8.46569 5.54087 8.48769 5.79087 8.54169 6.02887C7.23677 5.96489 5.96004 5.62621 4.79499 5.03498C3.62993 4.44375 2.60278 3.61328 1.78069 2.59787C1.35951 3.31973 1.2293 4.17498 1.41657 4.98947C1.60384 5.80397 2.09452 6.51646 2.78869 6.98187C2.26944 6.96794 1.76116 6.82938 1.30669 6.57787V6.61387C1.30756 7.3713 1.56935 8.1053 2.048 8.69233C2.52666 9.27935 3.19294 9.68354 3.93469 9.83687C3.65407 9.91082 3.36487 9.94714 3.07469 9.94487C2.86628 9.94857 2.65807 9.9298 2.45369 9.88887C2.66563 10.5399 3.07418 11.1092 3.62308 11.5184C4.17198 11.9276 4.83425 12.1566 5.51869 12.1739C4.35763 13.0819 2.92566 13.5745 1.45169 13.5729C1.18269 13.5729 0.924687 13.5609 0.666687 13.5279C2.16657 14.4944 3.91436 15.0057 5.69869 14.9999C11.7347 14.9999 15.0347 9.99987 15.0347 5.66587C15.0347 5.52087 15.0297 5.38087 15.0227 5.24187C15.6697 4.77885 16.2268 4.20175 16.6667 3.53887Z" fill="#03A9F4"/>
</g>
<defs>
<clipPath id="clip0_39_635">
<rect width="16" height="16" fill="white"/>
</clipPath>
</defs>
</svg>
