<svg xmlns="http://www.w3.org/2000/svg" xmlns:xlink="http://www.w3.org/1999/xlink" width="88" height="115" viewBox="0 0 88 115">
  <defs>
    <clipPath id="clip-Before_Login_1">
      <rect width="88" height="115"/>
    </clipPath>
  </defs>
  <g id="Before_Login_1" data-name="Before Login – 1" clip-path="url(#clip-Before_Login_1)">
    <g id="Group_18606" data-name="Group 18606" transform="translate(0.999)">
      <path id="Path_24666" data-name="Path 24666" d="M788.537,879.564a22.918,22.918,0,0,0-1.476-9.552l-4.337,1.674a18.313,18.313,0,0,1-.323,13.867h0q-2.042,1.784-4.246,3.577a80.4,80.4,0,0,0-13.584,13.1V881.651a92.921,92.921,0,0,1,39.6-32.9l-1.845-4.269a94.81,94.81,0,0,0-14.578,7.914,51.782,51.782,0,0,1,5.7-17.362l-4.095-2.214a56.534,56.534,0,0,0-6.626,23.143,98.276,98.276,0,0,0-18.153,17.8v-17.9a256.934,256.934,0,0,1,28.23-35.12l-3.358-3.23c-4.281,4.453-8.4,9.08-12.366,13.833-2.192-6.587-4.7-13.128-7.441-19.473l-4.269,1.859c3.091,7.123,5.85,14.49,8.225,21.908q-6.212,7.805-11.813,16.059-5.261-7.666-11.062-14.962a230.566,230.566,0,0,1,8.225-21.908l-4.269-1.857c-2.757,6.356-5.25,12.887-7.442,19.473q-5.934-7.146-12.366-13.833l-3.358,3.23A255.872,255.872,0,0,1,759.9,857.172l.035-.023v17.084a97.778,97.778,0,0,0-18.516-18.274,56.507,56.507,0,0,0-6.627-23.142l-4.095,2.215a51.906,51.906,0,0,1,5.682,17.373A94.263,94.263,0,0,0,721.8,844.49l-1.839,4.27a92.886,92.886,0,0,1,39.973,33.463v20.494a77.472,77.472,0,0,0-13.947-13.584q-2.2-1.8-4.246-3.577h0a18.28,18.28,0,0,1-.323-13.867l-4.336-1.673a22.943,22.943,0,0,0-1.476,9.552,28.447,28.447,0,0,1-6.149-10.372l-4.441,1.385c2.838,9.125,10.151,15.678,18.032,22.15,6.6,5.41,14.063,11.536,16.9,19.773h0v4.639H764.6v-5.6c3.056-7.753,10.2-13.624,16.531-18.815,7.89-6.472,15.194-13.024,18.031-22.15l-4.441-1.385a28.391,28.391,0,0,1-6.149,10.372Z" transform="translate(-719.596 -802.142)" fill="#55b047"/>
      <path id="Path_24667" data-name="Path 24667" d="M758.481,822.332a10.382,10.382,0,0,0,6.242-13.289l-1.1-3.046-3.047,1.1a10.384,10.384,0,0,0-6.24,13.289A3.241,3.241,0,0,0,758.481,822.332Z" transform="translate(-697.432 -805.996)" fill="#55b047"/>
      <path id="Path_24668" data-name="Path 24668" d="M745.474,836.468h0a3.23,3.23,0,0,0,4.569.013l.011-.013h0a10.393,10.393,0,0,0,0-14.686L747.77,819.5l-2.284,2.284a10.4,10.4,0,0,0,0,14.686Z" transform="translate(-704.833 -797.13)" fill="#55b047"/>
      <path id="Path_24669" data-name="Path 24669" d="M766.7,834.215a7.181,7.181,0,0,0,8.495-5.562l.462-2.192L773.464,826a7.184,7.184,0,0,0-8.49,5.561h0a2.221,2.221,0,0,0,1.708,2.637l.023,0Z" transform="translate(-690.076 -792.962)" fill="#55b047"/>
      <path id="Path_24670" data-name="Path 24670" d="M774.839,838.381a10.375,10.375,0,0,0-12.663,7.409l0,.008a3.238,3.238,0,0,0,2.308,3.946h0a10.374,10.374,0,0,0,12.662-7.415l0-.007.818-3.125-3.125-.819Z" transform="translate(-691.952 -784.956)" fill="#55b047"/>
      <path id="Path_24671" data-name="Path 24671" d="M728.953,834.21a2.233,2.233,0,0,0,1.733-2.641l0,0h0a7.183,7.183,0,0,0-8.49-5.561l-2.192.462.462,2.192a7.183,7.183,0,0,0,8.488,5.561Z" transform="translate(-719.57 -792.956)" fill="#55b047"/>
      <path id="Path_24672" data-name="Path 24672" d="M733.226,849.745a3.219,3.219,0,0,0,2.316-3.919l-.008-.027a10.374,10.374,0,0,0-12.658-7.42l-.008,0-3.126.818.819,3.126a10.377,10.377,0,0,0,12.658,7.421l.008,0Z" transform="translate(-719.742 -784.956)" fill="#55b047"/>
      <path id="Path_24673" data-name="Path 24673" d="M736.917,822.332h0a3.231,3.231,0,0,0,4.138-1.94l0-.01a10.388,10.388,0,0,0-6.24-13.289l-3.046-1.1-1.1,3.045A10.389,10.389,0,0,0,736.917,822.332Z" transform="translate(-712.969 -805.996)" fill="#55b047"/>
      <path id="Path_24674" data-name="Path 24674" d="M742.074,862.544a2.231,2.231,0,0,0,2.65-1.715v0a7.182,7.182,0,0,0-5.515-8.525l-2.193-.474-.474,2.192a7.181,7.181,0,0,0,5.515,8.525h.016Z" transform="translate(-708.816 -775.905)" fill="#55b047"/>
      <path id="Path_24675" data-name="Path 24675" d="M742.074,846.1a2.231,2.231,0,0,0,2.65-1.715v-.005a7.182,7.182,0,0,0-5.515-8.525l-2.193-.474-.474,2.192a7.18,7.18,0,0,0,5.515,8.525h0Z" transform="translate(-708.816 -786.705)" fill="#55b047"/>
      <path id="Path_24676" data-name="Path 24676" d="M754.714,852.3a7.182,7.182,0,0,0-5.515,8.525,2.238,2.238,0,0,0,2.651,1.719,7.18,7.18,0,0,0,5.515-8.525l-.474-2.191-2.192.474Z" transform="translate(-700.507 -775.901)" fill="#55b047"/>
      <path id="Path_24677" data-name="Path 24677" d="M754.713,835.85a7.183,7.183,0,0,0-5.515,8.525,2.238,2.238,0,0,0,2.65,1.72,7.181,7.181,0,0,0,5.515-8.525l-.474-2.192-2.192.474Z" transform="translate(-700.507 -786.704)" fill="#55b047"/>
    </g>
  </g>
</svg>
